<svg width="12.000000" height="12.251099" viewBox="0 0 12 12.2511" fill="none" xmlns="http://www.w3.org/2000/svg">
    <defs/>
    <path id="Icon color"
          d="M11.9144 11.2031L9.24826 8.47742C9.1619 8.38696 9.06573 8.30701 8.96164 8.23889L8.2951 7.76868C9.66614 6.0343 9.67886 3.5603 8.32576 1.81128C6.97267 0.0622559 4.61485 -0.494873 2.64824 0.469604C0.68161 1.43408 -0.368973 3.66284 0.118469 5.8363C0.605896 8.00989 2.50127 9.5481 4.68245 9.54041C5.74095 9.54077 6.7681 9.1731 7.59523 8.4978L8.09514 9.1792C8.15443 9.26697 8.22136 9.34912 8.2951 9.42456L10.9613 12.1503C11.0238 12.2148 11.109 12.2511 11.1979 12.2511C11.2868 12.2511 11.3719 12.2148 11.4345 12.1503L11.9011 11.6733C12.0276 11.5454 12.0335 11.3384 11.9144 11.2031ZM1.34981 4.77014C1.34981 6.65198 2.8419 8.17737 4.68251 8.17737C5.56641 8.17737 6.41409 7.81836 7.03909 7.17944C7.66409 6.54041 8.01521 5.67383 8.01521 4.77014C8.01521 2.88843 6.52312 1.36304 4.68251 1.36304C2.8419 1.36304 1.34981 2.88843 1.34981 4.77014Z"
          clip-rule="evenodd" fill="#707070" fill-opacity="1.000000" fill-rule="evenodd"/>
</svg>
