<svg width="25.000000" height="25.000000" viewBox="0 0 25.3 22.5268" fill="none" xmlns="http://www.w3.org/2000/svg">
    <path id="Vector"
          d="M11.49 21.89C11.8 22.2 12.22 22.37 12.66 22.37C13.09 22.37 13.52 22.19 13.82 21.89L22.98 12.73C24.38 11.33 25.14 9.48 25.15 7.52C25.15 5.55 24.38 3.7 22.99 2.31C21.6 0.92 19.75 0.16 17.78 0.16C15.85 0.16 14.03 0.89 12.65 2.24C11.26 0.89 9.44 0.14 7.5 0.14C5.54 0.14 3.69 0.91 2.3 2.3C0.91 3.69 0.14 5.54 0.14 7.51C0.14 9.47 0.91 11.32 2.31 12.71L11.49 21.89ZM3.19 3.18C4.34 2.03 5.88 1.39 7.51 1.39C9.14 1.39 10.68 2.03 11.83 3.19L12.21 3.57C12.33 3.68 12.49 3.75 12.66 3.75C12.82 3.75 12.98 3.68 13.1 3.57L13.47 3.2C14.62 2.04 16.16 1.4 17.79 1.4C19.43 1.4 20.96 2.04 22.11 3.19C23.27 4.35 23.9 5.89 23.9 7.52C23.9 9.15 23.26 10.68 22.11 11.84L12.94 21.01C12.79 21.15 12.52 21.15 12.37 21.01L3.19 11.83C2.04 10.67 1.4 9.14 1.4 7.51C1.4 5.88 2.04 4.34 3.19 3.18Z"
          fill="#000000" fill-opacity="1.000000" fill-rule="nonzero"/>
    <path id="Vector"
          d="M12.66 22.37C13.09 22.37 13.52 22.19 13.82 21.89L22.98 12.73C24.38 11.33 25.14 9.48 25.15 7.52C25.15 5.55 24.38 3.7 22.99 2.31C21.6 0.92 19.75 0.16 17.78 0.16C15.85 0.16 14.03 0.89 12.65 2.24C11.26 0.89 9.44 0.14 7.5 0.14C5.54 0.14 3.69 0.91 2.3 2.3C0.91 3.69 0.14 5.54 0.14 7.51C0.14 9.47 0.91 11.32 2.31 12.71L11.49 21.89C11.8 22.2 12.22 22.37 12.66 22.37ZM7.51 1.39C9.14 1.39 10.68 2.03 11.83 3.19L12.21 3.57C12.33 3.68 12.49 3.75 12.66 3.75C12.82 3.75 12.98 3.68 13.1 3.57L13.47 3.2C14.62 2.04 16.16 1.4 17.79 1.4C19.43 1.4 20.96 2.04 22.11 3.19C23.27 4.35 23.9 5.89 23.9 7.52C23.9 9.15 23.26 10.68 22.11 11.84L12.94 21.01C12.79 21.15 12.52 21.15 12.37 21.01L3.19 11.83C2.04 10.67 1.4 9.14 1.4 7.51C1.4 5.88 2.04 4.34 3.19 3.18C4.34 2.03 5.88 1.39 7.51 1.39Z"
          stroke="#000000" stroke-opacity="1.000000" stroke-width="0.300000"/>
</svg>