<svg width="19.137939" height="18.000000" viewBox="0 0 19.1379 18" fill="none" xmlns="http://www.w3.org/2000/svg">
    <defs/>
    <mask id="mask_3_1711" fill="white">
        <path id="Icon color"
              d="M9.56909 2.01404C10.6777 0.778625 12.231 0.052063 13.875 0C16.7817 0 19.1379 2.39587 19.1379 5.35138C19.1379 9.16541 14.5928 13.3784 12.4397 15.5676L10.2581 17.7859C10.1235 17.9229 9.94116 17.9998 9.75073 18L9.38721 18C9.19702 17.9998 9.0144 17.9229 8.88013 17.7859L6.69824 15.5676C4.54517 13.3784 0 9.16541 0 5.35138C0 2.39587 2.3562 0 5.26294 0C6.90698 0.052063 8.46021 0.778625 9.56909 2.01404Z"
              clip-rule="evenodd" fill="" fill-opacity="1.000000" fill-rule="evenodd"/>
    </mask>
    <path id="Icon color"
          d="M9.56909 2.01404C10.6777 0.778625 12.231 0.052063 13.875 0C16.7817 0 19.1379 2.39587 19.1379 5.35138C19.1379 9.16541 14.5928 13.3784 12.4397 15.5676L10.2581 17.7859C10.1235 17.9229 9.94116 17.9998 9.75073 18L9.38721 18C9.19702 17.9998 9.0144 17.9229 8.88013 17.7859L6.69824 15.5676C4.54517 13.3784 0 9.16541 0 5.35138C0 2.39587 2.3562 0 5.26294 0C6.90698 0.052063 8.46021 0.778625 9.56909 2.01404Z"
          clip-rule="evenodd" fill="#A18A68" fill-opacity="1.000000" fill-rule="evenodd" mask="url(#mask_3_1711)"/>
    <path id="Icon color" d="" fill="#979797" fill-opacity="0.000000" fill-rule="nonzero"/>
</svg>
