<svg width="21.000000" height="21.000000" viewBox="0 0 21 21" fill="none" xmlns="http://www.w3.org/2000/svg">
    <defs>
        <clipPath id="clip77_849">
            <rect id="shopping-cart 1" rx="0.500000" width="20.000000" height="20.000000"
                  transform="translate(0.500000 0.500000)" fill="white" fill-opacity="0"/>
        </clipPath>
    </defs>
    <rect id="shopping-cart 1" rx="0.500000" width="20.000000" height="20.000000"
          transform="translate(0.500000 0.500000)" fill="#FFFFFF" fill-opacity="0"/>
    <g clip-path="url(#clip77_849)">
        <path id="Vector"
              d="M6.76 13.57L6.76 13.57C6.76 13.57 6.76 13.57 6.76 13.57L17.92 13.57C18.19 13.57 18.43 13.39 18.51 13.13L20.97 4.51C21.02 4.33 20.99 4.13 20.87 3.97C20.75 3.82 20.57 3.73 20.38 3.73L5.34 3.73L4.9 1.75C4.84 1.47 4.59 1.27 4.3 1.27L0.61 1.27C0.27 1.27 0 1.54 0 1.88C0 2.22 0.27 2.5 0.61 2.5L3.81 2.5C3.89 2.85 5.91 11.97 6.03 12.49C5.38 12.78 4.92 13.43 4.92 14.19C4.92 15.2 5.74 16.03 6.76 16.03L17.92 16.03C18.26 16.03 18.53 15.76 18.53 15.42C18.53 15.08 18.26 14.8 17.92 14.8L6.76 14.8C6.42 14.8 6.15 14.53 6.15 14.19C6.15 13.85 6.42 13.57 6.76 13.57ZM19.56 4.96L17.45 12.34L7.26 12.34L5.62 4.96L19.56 4.96Z"
              fill="#000000" fill-opacity="1.000000" fill-rule="nonzero"/>
        <path id="Vector"
              d="M6.15 17.88C6.15 18.9 6.98 19.72 7.99 19.72C9.01 19.72 9.84 18.9 9.84 17.88C9.84 16.86 9.01 16.03 7.99 16.03C6.98 16.03 6.15 16.86 6.15 17.88ZM7.99 17.26C8.33 17.26 8.61 17.54 8.61 17.88C8.61 18.22 8.33 18.49 7.99 18.49C7.65 18.49 7.38 18.22 7.38 17.88C7.38 17.54 7.65 17.26 7.99 17.26Z"
              fill="#000000" fill-opacity="1.000000" fill-rule="nonzero"/>
        <path id="Vector"
              d="M14.84 17.88C14.84 18.9 15.67 19.72 16.69 19.72C17.71 19.72 18.53 18.9 18.53 17.88C18.53 16.86 17.71 16.03 16.69 16.03C15.67 16.03 14.84 16.86 14.84 17.88ZM16.69 17.26C17.03 17.26 17.3 17.54 17.3 17.88C17.3 18.22 17.03 18.49 16.69 18.49C16.35 18.49 16.07 18.22 16.07 17.88C16.07 17.54 16.35 17.26 16.69 17.26Z"
              fill="#000000" fill-opacity="1.000000" fill-rule="nonzero"/>
    </g>
</svg>
