<svg width="10.000000" height="18.000000" viewBox="0 0 10 18" fill="none" xmlns="http://www.w3.org/2000/svg">
    <path id="Icon color"
          d="M9.5 3L6.5 3C5.94 3 5.5 3.44 5.5 4L5.5 7L9.5 7C9.61 6.99 9.72 7.05 9.78 7.14C9.85 7.23 9.87 7.35 9.84 7.45L9.1 9.66C9.03 9.86 8.84 9.99 8.62 10L5.5 10L5.5 17.5C5.5 17.77 5.27 18 5 18L2.5 18C2.22 18 2 17.77 2 17.5L2 10L0.5 10C0.22 10 0 9.77 0 9.5L0 7.5C0 7.22 0.22 7 0.5 7L2 7L2 4C2 1.79 3.79 0 6 0L9.5 0C9.77 0 10 0.22 10 0.5L10 2.5C10 2.77 9.77 3 9.5 3Z"
          fill="#707070" fill-opacity="1.000000" fill-rule="nonzero"/>
    <path id="Icon color"
          d="M6.5 3C5.94 3 5.5 3.44 5.5 4L5.5 7L9.5 7C9.61 6.99 9.72 7.05 9.78 7.14C9.85 7.23 9.87 7.35 9.84 7.45L9.1 9.66C9.03 9.86 8.84 9.99 8.62 10L5.5 10L5.5 17.5C5.5 17.77 5.27 18 5 18L2.5 18C2.22 18 2 17.77 2 17.5L2 10L0.5 10C0.22 10 0 9.77 0 9.5L0 7.5C0 7.22 0.22 7 0.5 7L2 7L2 4C2 1.79 3.79 0 6 0L9.5 0C9.77 0 10 0.22 10 0.5L10 2.5C10 2.77 9.77 3 9.5 3L6.5 3Z"
          stroke="#979797" stroke-opacity="0" stroke-width="0.000000"/>
</svg>
