<svg width="20.000000" height="17.000000" viewBox="0 0 20 17" fill="none" xmlns="http://www.w3.org/2000/svg">
    <path id="Icon color"
          d="M19.97 2.46C19.45 3.15 18.83 3.75 18.12 4.24C18.12 4.42 18.12 4.6 18.12 4.79C18.12 8.05 16.82 11.18 14.5 13.48C12.18 15.77 9.03 17.04 5.77 16.99C3.88 17 2.02 16.57 0.33 15.74C0.23 15.7 0.18 15.61 0.18 15.51L0.18 15.4C0.18 15.25 0.29 15.14 0.44 15.14C2.29 15.07 4.08 14.43 5.55 13.3C3.87 13.26 2.36 12.27 1.66 10.74C1.63 10.66 1.64 10.56 1.69 10.49C1.75 10.41 1.83 10.37 1.92 10.38C2.43 10.43 2.95 10.38 3.44 10.24C1.59 9.86 0.2 8.32 0 6.43C-0.01 6.34 0.03 6.26 0.1 6.2C0.18 6.15 0.27 6.14 0.36 6.17C0.85 6.39 1.39 6.51 1.93 6.51C0.31 5.45 -0.39 3.42 0.23 1.58C0.29 1.4 0.44 1.27 0.63 1.23C0.82 1.19 1.01 1.26 1.13 1.4C3.33 3.73 6.34 5.12 9.53 5.28C9.45 4.95 9.41 4.61 9.41 4.28C9.44 2.51 10.53 0.94 12.18 0.29C13.82 -0.35 15.69 0.06 16.91 1.34C17.74 1.18 18.55 0.9 19.3 0.51C19.35 0.48 19.42 0.48 19.48 0.51C19.51 0.57 19.51 0.64 19.48 0.69C19.11 1.52 18.5 2.22 17.72 2.69C18.4 2.61 19.07 2.45 19.72 2.21C19.77 2.17 19.84 2.17 19.9 2.21C19.94 2.23 19.98 2.27 19.99 2.32C20 2.37 19.99 2.42 19.97 2.46Z"
          fill="#707070" fill-opacity="1.000000" fill-rule="nonzero"/>
    <path id="Icon color"
          d="M18.12 4.24C18.12 4.42 18.12 4.6 18.12 4.79C18.12 8.05 16.82 11.18 14.5 13.48C12.18 15.77 9.03 17.04 5.77 16.99C3.88 17 2.02 16.57 0.33 15.74C0.23 15.7 0.18 15.61 0.18 15.51L0.18 15.4C0.18 15.25 0.29 15.14 0.44 15.14C2.29 15.07 4.08 14.43 5.55 13.3C3.87 13.26 2.36 12.27 1.66 10.74C1.63 10.66 1.64 10.56 1.69 10.49C1.75 10.41 1.83 10.37 1.92 10.38C2.43 10.43 2.95 10.38 3.44 10.24C1.59 9.86 0.2 8.32 0 6.43C-0.01 6.34 0.03 6.26 0.1 6.2C0.18 6.15 0.27 6.14 0.36 6.17C0.85 6.39 1.39 6.51 1.93 6.51C0.31 5.45 -0.39 3.42 0.23 1.58C0.29 1.4 0.44 1.27 0.63 1.23C0.82 1.19 1.01 1.26 1.13 1.4C3.33 3.73 6.34 5.12 9.53 5.28C9.45 4.95 9.41 4.61 9.41 4.28C9.44 2.51 10.53 0.94 12.18 0.29C13.82 -0.35 15.69 0.06 16.91 1.34C17.74 1.18 18.55 0.9 19.3 0.51C19.35 0.48 19.42 0.48 19.48 0.51C19.51 0.57 19.51 0.64 19.48 0.69C19.11 1.52 18.5 2.22 17.72 2.69C18.4 2.61 19.07 2.45 19.72 2.21C19.77 2.17 19.84 2.17 19.9 2.21C19.94 2.23 19.98 2.27 19.99 2.32C20 2.37 19.99 2.42 19.97 2.46C19.45 3.15 18.83 3.75 18.12 4.24Z"
          stroke="#979797" stroke-opacity="0" stroke-width="0.000000"/>
</svg>
