<svg width="19.000000" height="19.000000" viewBox="0 0 19 19" fill="none" xmlns="http://www.w3.org/2000/svg">
    <defs/>
    <mask id="mask_2_167" fill="white">
        <path id="Icon color"
              d="M2.5 16.5L8 16.5C8.27612 16.5 8.5 16.7239 8.5 17L8.5 18C8.5 18.2761 8.27612 18.5 8 18.5L2.5 18.5C1.39545 18.5 0.5 17.6046 0.5 16.5L0.5 2.5C0.5 1.39545 1.39545 0.5 2.5 0.5L8 0.5C8.27612 0.5 8.5 0.723877 8.5 1L8.5 2C8.5 2.27612 8.27612 2.5 8 2.5L2.5 2.5L2.5 16.5ZM18.28 8.78003L13.14 3.65002C13.0461 3.55536 12.9183 3.50208 12.785 3.50208C12.6517 3.50208 12.5239 3.55536 12.43 3.65002L11.72 4.35999C11.6259 4.45215 11.5729 4.57831 11.5729 4.71002C11.5729 4.84167 11.6259 4.96783 11.72 5.06L15.17 8.5L5 8.5C4.72388 8.5 4.5 8.72388 4.5 9L4.5 10C4.5 10.2761 4.72388 10.5 5 10.5L15.17 10.5L11.72 13.94C11.6254 14.0339 11.5721 14.1617 11.5721 14.295C11.5721 14.4283 11.6254 14.5561 11.72 14.65L12.43 15.35C12.5239 15.4446 12.6517 15.4979 12.785 15.4979C12.9183 15.4979 13.0461 15.4446 13.14 15.35L18.28 10.22C18.4207 10.0795 18.4998 9.88885 18.5 9.69L18.5 9.31C18.4977 9.11157 18.4189 8.92169 18.28 8.78003Z"
              clip-rule="evenodd" fill="" fill-opacity="1.000000" fill-rule="evenodd"/>
    </mask>
    <path id="Icon color"
          d="M2.5 16.5L8 16.5C8.27612 16.5 8.5 16.7239 8.5 17L8.5 18C8.5 18.2761 8.27612 18.5 8 18.5L2.5 18.5C1.39545 18.5 0.5 17.6046 0.5 16.5L0.5 2.5C0.5 1.39545 1.39545 0.5 2.5 0.5L8 0.5C8.27612 0.5 8.5 0.723877 8.5 1L8.5 2C8.5 2.27612 8.27612 2.5 8 2.5L2.5 2.5L2.5 16.5ZM18.28 8.78003L13.14 3.65002C13.0461 3.55536 12.9183 3.50208 12.785 3.50208C12.6517 3.50208 12.5239 3.55536 12.43 3.65002L11.72 4.35999C11.6259 4.45215 11.5729 4.57831 11.5729 4.71002C11.5729 4.84167 11.6259 4.96783 11.72 5.06L15.17 8.5L5 8.5C4.72388 8.5 4.5 8.72388 4.5 9L4.5 10C4.5 10.2761 4.72388 10.5 5 10.5L15.17 10.5L11.72 13.94C11.6254 14.0339 11.5721 14.1617 11.5721 14.295C11.5721 14.4283 11.6254 14.5561 11.72 14.65L12.43 15.35C12.5239 15.4446 12.6517 15.4979 12.785 15.4979C12.9183 15.4979 13.0461 15.4446 13.14 15.35L18.28 10.22C18.4207 10.0795 18.4998 9.88885 18.5 9.69L18.5 9.31C18.4977 9.11157 18.4189 8.92169 18.28 8.78003Z"
          clip-rule="evenodd" fill="#000000" fill-opacity="1.000000" fill-rule="evenodd" mask="url(#mask_2_167)"/>
    <path id="Icon color"
          d="M2.5 16L8 16Q8.20312 16 8.3894 16.0788Q8.56897 16.1547 8.70709 16.2929Q8.84528 16.431 8.9212 16.6106Q9 16.7969 9 17L9 18Q9 18.2031 8.9212 18.3894Q8.84528 18.569 8.70709 18.7071Q8.56897 18.8453 8.3894 18.9212Q8.20312 19 8 19L2.5 19Q1.9917 19 1.52673 18.8033Q1.078 18.6135 0.732239 18.2678Q0.386475 17.922 0.196655 17.4733Q0 17.0083 0 16.5L0 2.5Q0 1.9917 0.196655 1.52673Q0.386475 1.078 0.732239 0.732239Q1.078 0.386475 1.52673 0.196655Q1.9917 0 2.5 0L8 0Q8.20312 0 8.3894 0.0787964Q8.56897 0.154724 8.70709 0.292908Q8.84528 0.43103 8.9212 0.610596Q9 0.796875 9 1L9 2Q9 2.20312 8.9212 2.3894Q8.84528 2.56897 8.70709 2.70709Q8.56897 2.84528 8.3894 2.9212Q8.20312 3 8 3L2.5 3L2.5 2.5L3 2.5L3 16.5L2.5 16.5L2.5 16ZM2 17L2 2L8 2Q8 2 8 2L8 1L8 1L2.5 1Q2.19452 1 1.91626 1.11768Q1.64722 1.23151 1.43933 1.43933Q1.23151 1.64722 1.11768 1.91626Q1 2.19452 1 2.5L1 16.5Q1 16.8055 1.11768 17.0837Q1.23151 17.3528 1.43933 17.5607Q1.64722 17.7685 1.91626 17.8823Q2.19452 18 2.5 18L8 18Q8 18 8 18L8 17L8 17L2.5 17L2 17ZM17.9268 9.13391L12.7868 4.00391Q12.785 4.00208 12.785 4.00208Q12.785 4.00208 12.785 4.00208L12.0735 4.71356Q12.0729 4.71417 12.0729 4.71002Q12.0729 4.70581 12.0699 4.70288L16.3796 9L5 9L5 9L5 10L5 10L16.3796 10L12.0731 14.2941Q12.0721 14.295 12.0721 14.295Q12.0721 14.295 12.0721 14.295L12.7811 14.994Q12.785 14.9979 12.785 14.9979Q12.785 14.9979 12.785 14.9979L17.9268 9.86609Q17.9999 9.79309 18 9.68958L18 9.31Q17.9988 9.2074 17.9229 9.12994L17.9268 9.13391ZM18.6371 8.43005Q18.8089 8.60535 18.903 8.83203Q18.9971 9.05878 19 9.31L19 9.69043Q18.9998 9.93903 18.9045 10.1686Q18.8092 10.3981 18.6332 10.5739L13.495 15.7021Q13.3542 15.8441 13.1696 15.921Q12.985 15.9979 12.785 15.9979Q12.585 15.9979 12.4005 15.921Q12.2158 15.8441 12.079 15.7061L11.3679 15.005Q11.2259 14.8642 11.149 14.6796Q11.0721 14.495 11.0721 14.295Q11.0721 14.095 11.149 13.9104Q11.2259 13.7258 11.3669 13.5859L14.817 10.1459L15.17 10.5L15.17 11L5 11Q4.79688 11 4.6106 10.9212Q4.43103 10.8453 4.29291 10.7071Q4.15472 10.569 4.0788 10.3894Q4 10.2031 4 10L4 9Q4 8.79688 4.0788 8.6106Q4.15472 8.43103 4.29291 8.29291Q4.43103 8.15472 4.6106 8.0788Q4.79688 8 5 8L15.17 8L15.17 8.5L14.817 8.85406L11.3701 5.41711Q11.2275 5.27747 11.1502 5.09351Q11.0729 4.90955 11.0729 4.71002Q11.0729 4.51044 11.1502 4.32648Q11.2275 4.14252 11.3665 4.00647L12.075 3.29791Q12.2158 3.15594 12.4005 3.07898Q12.585 3.00208 12.785 3.00208Q12.985 3.00208 13.1696 3.07898Q13.3542 3.15594 13.4932 3.29608L18.6332 8.42609L18.6371 8.43005Z"
          fill="#FFFFFF" fill-opacity="1.000000" fill-rule="nonzero"/>
</svg>
