<svg width="21.000000" height="21.000000" viewBox="0 0 21 21" fill="none" xmlns="http://www.w3.org/2000/svg">
    <defs>
        <clipPath id="clip77_854">
            <rect id="shopping-cart 2" rx="-0.500000" width="20.000000" height="20.000000"
                  transform="translate(0.500000 0.500000)" fill="white" fill-opacity="0"/>
        </clipPath>
    </defs>
    <rect id="shopping-cart 2" rx="-0.500000" width="20.000000" height="20.000000"
          transform="translate(0.500000 0.500000)" fill="#FFFFFF" fill-opacity="0"/>
    <g clip-path="url(#clip77_854)">
        <mask id="mask_77_855" fill="white">
            <path id="Icon color"
                  d="M10.5 4.78906C11.4849 3.69165 12.8645 3.04626 14.325 3C16.907 3 19 5.12817 19 7.75354C19 11.1415 14.9624 14.8838 13.05 16.8285L11.1121 18.799C10.9927 18.9207 10.8306 18.989 10.6616 18.9891L10.3384 18.9891C10.1694 18.989 10.0073 18.9207 9.88794 18.799L7.94995 16.8285C6.0376 14.8838 2 11.1415 2 7.75354C2 5.12817 4.09302 3 6.67505 3C8.1355 3.04626 9.51514 3.69165 10.5 4.78906Z"
                  clip-rule="evenodd" fill="" fill-opacity="1.000000" fill-rule="evenodd"/>
        </mask>
        <path id="Icon color"
              d="M10.5 4.78906C11.4849 3.69165 12.8645 3.04626 14.325 3C16.907 3 19 5.12817 19 7.75354C19 11.1415 14.9624 14.8838 13.05 16.8285L11.1121 18.799C10.9927 18.9207 10.8306 18.989 10.6616 18.9891L10.3384 18.9891C10.1694 18.989 10.0073 18.9207 9.88794 18.799L7.94995 16.8285C6.0376 14.8838 2 11.1415 2 7.75354C2 5.12817 4.09302 3 6.67505 3C8.1355 3.04626 9.51514 3.69165 10.5 4.78906Z"
              clip-rule="evenodd" fill="#000000" fill-opacity="0.000000" fill-rule="evenodd" mask="url(#mask_77_855)"/>
        <path id="Icon color"
              d="M10.1279 4.45508Q10.9346 3.55627 12.0222 3.04749Q13.1111 2.53821 14.3091 2.50024L14.3171 2.5L14.325 2.5Q15.3792 2.5 16.3423 2.91418Q17.2715 3.31384 17.9873 4.04163Q18.7021 4.76868 19.0942 5.71118Q19.5 6.68652 19.5 7.75354Q19.5 9.95032 17.4485 12.7288Q16.7043 13.7365 15.6404 14.8883Q15.0286 15.5507 13.918 16.6642Q13.563 17.0199 13.4065 17.1791L11.4685 19.1497Q11.3091 19.3119 11.0999 19.4003Q10.8896 19.4889 10.6619 19.4891L10.3384 19.4891Q10.1104 19.4889 9.90015 19.4003Q9.69092 19.3119 9.53125 19.1494L7.59351 17.1791Q7.43677 17.0197 7.08203 16.6642Q5.97144 15.5507 5.35962 14.8883Q4.29565 13.7365 3.55151 12.7288Q1.5 9.95032 1.5 7.75354Q1.5 6.68652 1.90576 5.71118Q2.29785 4.76868 3.0127 4.04163Q3.72852 3.31384 4.65771 2.91418Q5.62085 2.5 6.67505 2.5L6.68286 2.5L6.69092 2.50024Q7.88892 2.53821 8.97778 3.04749Q10.0654 3.55627 10.8721 4.45508L10.5 4.78906L10.1279 4.45508ZM10.8721 5.12305L10.5 5.53772L10.1279 5.12305Q9.45728 4.37573 8.55396 3.95325Q7.65161 3.53125 6.65918 3.49976L6.67505 3L6.67505 3.5Q5.8269 3.5 5.05273 3.83289Q4.30396 4.15491 3.72583 4.74292Q3.14673 5.33167 2.8291 6.09534Q2.5 6.88623 2.5 7.75354Q2.5 9.62109 4.35596 12.1346Q5.06763 13.0983 6.09424 14.2098Q6.69287 14.858 7.79004 15.9579Q8.14722 16.3159 8.3064 16.4779L10.2446 18.4486Q10.2844 18.4891 10.3384 18.4891L10.6611 18.4891Q10.7156 18.4891 10.7556 18.4484L12.6936 16.4779Q12.8528 16.316 13.21 15.9579Q14.3071 14.858 14.9058 14.2098Q15.9324 13.0983 16.644 12.1346Q18.5 9.62109 18.5 7.75354Q18.5 6.88623 18.1709 6.09534Q17.8533 5.33167 17.2742 4.74292Q16.696 4.15491 15.9473 3.83289Q15.1731 3.5 14.325 3.5L14.325 3L14.3408 3.49976Q13.3484 3.53125 12.446 3.95325Q11.5427 4.37573 10.8721 5.12305Z"
              fill="#000000" fill-opacity="1.000000" fill-rule="nonzero"/>
    </g>
</svg>
