<svg width="19" height="19" viewBox="0 0 19.7505 19.7506" fill="none" xmlns="http://www.w3.org/2000/svg">
	<defs/>
	<mask id="mask_77_841" fill="white">
		<path id="Icon color" d="M19.24 17.7504L15.0186 13.5229C14.8818 13.3828 14.7295 13.2588 14.5647 13.1531L13.5095 12.424C15.6802 9.73413 15.7004 5.89722 13.5579 3.18469C11.4155 0.472168 7.68237 -0.391968 4.5686 1.10388C1.45459 2.59961 -0.20874 6.05615 0.562988 9.42712C1.33472 12.798 4.33594 15.1837 7.78931 15.1716C9.46533 15.1721 11.0916 14.6019 12.4014 13.5547L13.1929 14.6116C13.2866 14.7477 13.3926 14.875 13.5095 14.9919L17.731 19.2194C17.8298 19.3193 17.9648 19.3756 18.1055 19.3756C18.2461 19.3756 18.3811 19.3193 18.4802 19.2194L19.219 18.4795C19.4192 18.2811 19.4285 17.9601 19.24 17.7504ZM2.5127 7.77356C2.5127 10.6919 4.87524 13.0577 7.78955 13.0577C9.18896 13.0577 10.5312 12.501 11.5208 11.51C12.5105 10.519 13.0664 9.17505 13.0664 7.77356C13.0664 4.85522 10.7039 2.4895 7.78955 2.4895C4.87524 2.4895 2.5127 4.85522 2.5127 7.77356Z" clip-rule="evenodd" fill="" fill-opacity="1.000000" fill-rule="evenodd"/>
	</mask>
	<path id="Icon color" d="M19.24 17.7504L15.0186 13.5229C14.8818 13.3828 14.7295 13.2588 14.5647 13.1531L13.5095 12.424C15.6802 9.73413 15.7004 5.89722 13.5579 3.18469C11.4155 0.472168 7.68237 -0.391968 4.5686 1.10388C1.45459 2.59961 -0.20874 6.05615 0.562988 9.42712C1.33472 12.798 4.33594 15.1837 7.78931 15.1716C9.46533 15.1721 11.0916 14.6019 12.4014 13.5547L13.1929 14.6116C13.2866 14.7477 13.3926 14.875 13.5095 14.9919L17.731 19.2194C17.8298 19.3193 17.9648 19.3756 18.1055 19.3756C18.2461 19.3756 18.3811 19.3193 18.4802 19.2194L19.219 18.4795C19.4192 18.2811 19.4285 17.9601 19.24 17.7504ZM2.5127 7.77356C2.5127 10.6919 4.87524 13.0577 7.78955 13.0577C9.18896 13.0577 10.5312 12.501 11.5208 11.51C12.5105 10.519 13.0664 9.17505 13.0664 7.77356C13.0664 4.85522 10.7039 2.4895 7.78955 2.4895C4.87524 2.4895 2.5127 4.85522 2.5127 7.77356Z" clip-rule="evenodd" fill="#000000" fill-opacity="1.000000" fill-rule="evenodd" mask="url(#mask_77_841)"/>
	<path id="Icon color" d="M18.9746 18.0153L14.7532 13.788Q14.5742 13.6046 14.3623 13.4689L14.3569 13.4653L12.9639 12.5028L13.2175 12.1884Q13.9802 11.2435 14.3801 10.1029Q14.77 8.9917 14.7761 7.81091Q14.7822 6.63 14.4043 5.51477Q14.0164 4.37 13.2637 3.41711Q12.5112 2.46436 11.488 1.82251Q10.4917 1.19739 9.34302 0.931519Q8.19434 0.665649 7.0249 0.789429Q5.82471 0.916504 4.73096 1.44189Q3.63721 1.96729 2.78687 2.82532Q1.9585 3.66125 1.44653 4.72498Q0.934814 5.7887 0.797852 6.95837Q0.657471 8.15918 0.928711 9.34338Q1.19971 10.5276 1.84839 11.5471Q2.48047 12.5403 3.40381 13.2744Q4.32739 14.0084 5.43652 14.3995Q6.57495 14.8009 7.78809 14.7966Q8.98267 14.797 10.1086 14.4022Q11.2346 14.0074 12.167 13.2618L12.4695 13.0201L13.4973 14.3926L13.5015 14.3986Q13.6233 14.5752 13.7749 14.7272L17.9961 18.9543Q18.042 19.0006 18.1055 19.0006Q18.1689 19.0006 18.2136 18.9554L18.9536 18.2146Q18.9985 18.1699 19.0005 18.1083Q19.0022 18.0468 18.9612 18.001L19.24 17.7504L18.9746 18.0153ZM19.5054 17.4854L19.5122 17.4923L19.5188 17.4996Q19.7605 17.7686 19.75 18.13Q19.7397 18.4916 19.4841 18.7445L18.7466 19.4832Q18.6194 19.6116 18.4529 19.681Q18.2861 19.7506 18.1055 19.7506Q17.9248 19.7506 17.7581 19.681Q17.5916 19.6116 17.4656 19.4843L13.2439 15.2568Q13.0444 15.057 12.884 14.8245L13.1929 14.6116L12.8926 14.8363L12.1011 13.7795L12.4014 13.5547L12.6355 13.8475Q11.6033 14.6729 10.3567 15.11Q9.11011 15.547 7.79077 15.5466Q6.448 15.5513 5.18726 15.1068Q3.95923 14.674 2.93726 13.8616Q1.91528 13.0492 1.21582 11.9498Q0.497559 10.8212 0.19751 9.51074Q-0.102539 8.20056 0.0529785 6.87134Q0.204346 5.57666 0.770752 4.39966Q1.33716 3.22266 2.25415 2.29736Q3.19556 1.34729 4.40625 0.765869Q5.6167 0.184326 6.94604 0.0435791Q8.24072 -0.0935059 9.51221 0.200806Q10.7834 0.495117 11.8867 1.18726Q13.0193 1.89783 13.8523 2.95227Q14.6851 4.00671 15.1145 5.27405Q15.533 6.5083 15.5261 7.81482Q15.5193 9.12122 15.0879 10.3511Q14.645 11.6139 13.8013 12.6594L13.5095 12.424L13.7227 12.1154L14.7778 12.8446L14.5647 13.1531L14.7671 12.8374Q15.0513 13.0195 15.2839 13.2581L19.5054 17.4854ZM2.8877 7.77356Q2.8877 8.77271 3.27295 9.68457Q3.64502 10.5654 4.32373 11.2451Q5.0022 11.9247 5.88184 12.2971Q6.79224 12.6827 7.78955 12.6827Q8.7644 12.6827 9.66528 12.3091Q10.5659 11.9354 11.2554 11.2451Q11.9451 10.5546 12.3181 9.65247Q12.6914 8.75012 12.6914 7.77356Q12.6914 6.77454 12.3062 5.86267Q11.9341 4.98169 11.2554 4.30212Q10.5769 3.62256 9.69727 3.25Q8.78687 2.8645 7.78955 2.8645Q6.79224 2.8645 5.88184 3.25Q5.0022 3.62256 4.32373 4.30212Q3.64502 4.98169 3.27295 5.86267Q2.8877 6.77454 2.8877 7.77356ZM2.1377 7.77356Q2.1377 6.62256 2.58203 5.5708Q3.01099 4.55518 3.79297 3.77222Q4.57495 2.98901 5.58936 2.55945Q6.63989 2.1145 7.78955 2.1145Q8.93921 2.1145 9.98975 2.55945Q11.0042 2.98901 11.7861 3.77222Q12.5681 4.5553 12.9971 5.5708Q13.4414 6.62256 13.4414 7.77356Q13.4414 8.89917 13.0112 9.93909Q12.5811 10.979 11.7861 11.775Q10.9912 12.571 9.95264 13.0018Q8.91382 13.4327 7.78955 13.4327Q6.63989 13.4327 5.58936 12.9878Q4.57495 12.5581 3.79297 11.775Q3.01099 10.9919 2.58203 9.97632Q2.1377 8.92456 2.1377 7.77356Z" fill="#FFFFFF" fill-opacity="1.000000" fill-rule="nonzero"/>
</svg>
