<svg width="21.000244" height="21.000000" viewBox="0 0 21.0002 21" fill="none" xmlns="http://www.w3.org/2000/svg">
    <defs/>
    <mask id="mask_77_844" fill="white">
        <path id="Icon color"
              d="M15.5015 5.5C15.5015 8.26147 13.2622 10.5 10.5 10.5C7.73779 10.5 5.49854 8.26147 5.49854 5.5C5.49854 2.73853 7.73779 0.5 10.5 0.5C13.2622 0.5 15.5015 2.73853 15.5015 5.5ZM13.501 5.5C13.501 3.84314 12.1575 2.5 10.5 2.5C8.84277 2.5 7.49927 3.84314 7.49927 5.5C7.49927 7.15686 8.84277 8.5 10.5 8.5C12.1575 8.5 13.501 7.15686 13.501 5.5ZM20.3931 19.05L18.5024 15.26C17.6545 13.5682 15.9238 12.5 14.031 12.5L6.96899 12.5C5.07617 12.5 3.34546 13.5682 2.49756 15.26L0.606934 19.05C0.450928 19.3595 0.466309 19.7277 0.647705 20.0231C0.829102 20.3185 1.15063 20.4989 1.49731 20.5L19.5027 20.5C19.8494 20.4989 20.1709 20.3185 20.3523 20.0231C20.5337 19.7277 20.5491 19.3595 20.3931 19.05ZM4.28809 16.16L3.11792 18.5L17.8823 18.5L16.7119 16.16C16.2046 15.144 15.167 14.5016 14.031 14.5L6.96899 14.5C5.83325 14.5016 4.79541 15.144 4.28809 16.16Z"
              clip-rule="evenodd" fill="" fill-opacity="1.000000" fill-rule="evenodd"/>
    </mask>
    <path id="Icon color"
          d="M15.5015 5.5C15.5015 8.26147 13.2622 10.5 10.5 10.5C7.73779 10.5 5.49854 8.26147 5.49854 5.5C5.49854 2.73853 7.73779 0.5 10.5 0.5C13.2622 0.5 15.5015 2.73853 15.5015 5.5ZM13.501 5.5C13.501 3.84314 12.1575 2.5 10.5 2.5C8.84277 2.5 7.49927 3.84314 7.49927 5.5C7.49927 7.15686 8.84277 8.5 10.5 8.5C12.1575 8.5 13.501 7.15686 13.501 5.5ZM20.3931 19.05L18.5024 15.26C17.6545 13.5682 15.9238 12.5 14.031 12.5L6.96899 12.5C5.07617 12.5 3.34546 13.5682 2.49756 15.26L0.606934 19.05C0.450928 19.3595 0.466309 19.7277 0.647705 20.0231C0.829102 20.3185 1.15063 20.4989 1.49731 20.5L19.5027 20.5C19.8494 20.4989 20.1709 20.3185 20.3523 20.0231C20.5337 19.7277 20.5491 19.3595 20.3931 19.05ZM4.28809 16.16L3.11792 18.5L17.8823 18.5L16.7119 16.16C16.2046 15.144 15.167 14.5016 14.031 14.5L6.96899 14.5C5.83325 14.5016 4.79541 15.144 4.28809 16.16Z"
          clip-rule="evenodd" fill="#000000" fill-opacity="1.000000" fill-rule="evenodd" mask="url(#mask_77_844)"/>
    <path id="Icon color"
          d="M16.0015 5.5Q16.0015 6.61865 15.5691 7.64099Q15.1514 8.62817 14.3901 9.38916Q13.6289 10.1501 12.6416 10.5676Q11.6189 11 10.5 11Q9.3811 11 8.3584 10.5676Q7.37109 10.1501 6.60986 9.38916Q5.84863 8.62817 5.43115 7.64099Q4.99854 6.61865 4.99854 5.5Q4.99854 4.38135 5.43115 3.35901Q5.84863 2.37183 6.60986 1.61084Q7.37109 0.849854 8.3584 0.432373Q9.3811 0 10.5 0Q11.6189 0 12.6416 0.432373Q13.6289 0.849854 14.3901 1.61084Q15.1514 2.37183 15.5691 3.35901Q16.0015 4.38135 16.0015 5.5ZM15.0015 5.5Q15.0015 4.58423 14.6479 3.74866Q14.3064 2.94116 13.6831 2.31812Q13.0598 1.69495 12.2522 1.35339Q11.4163 1 10.5 1Q9.58374 1 8.74805 1.35339Q7.94019 1.69495 7.31689 2.31812Q6.6936 2.94116 6.35205 3.74866Q5.99854 4.58423 5.99854 5.5Q5.99854 6.41577 6.35205 7.25134Q6.6936 8.05884 7.31689 8.68188Q7.94019 9.30505 8.74805 9.64661Q9.58374 10 10.5 10Q11.4163 10 12.2522 9.64661Q13.0598 9.30505 13.6831 8.68188Q14.3064 8.05884 14.6479 7.25134Q15.0015 6.41577 15.0015 5.5ZM13.001 5.5Q13.001 4.99109 12.8047 4.5271Q12.615 4.07849 12.2686 3.7323Q11.9221 3.38599 11.4734 3.19629Q11.0093 3 10.5 3Q9.99097 3 9.52686 3.19629Q9.07812 3.38599 8.73169 3.7323Q8.38525 4.07849 8.19556 4.5271Q7.99927 4.99109 7.99927 5.5Q7.99927 6.00891 8.19556 6.4729Q8.38525 6.92151 8.73169 7.2677Q9.07812 7.61401 9.52686 7.80371Q9.99097 8 10.5 8Q11.0093 8 11.4734 7.80371Q11.9221 7.61401 12.2686 7.2677Q12.615 6.92139 12.8047 6.4729Q13.001 6.00891 13.001 5.5ZM14.001 5.5Q14.001 6.21179 13.7256 6.86255Q13.46 7.49072 12.9756 7.97498Q12.4912 8.45911 11.863 8.72473Q11.2119 9 10.5 9Q9.78809 9 9.13721 8.72473Q8.50903 8.45911 8.02466 7.97498Q7.54028 7.49072 7.27466 6.86255Q6.99927 6.21179 6.99927 5.5Q6.99927 4.78821 7.27466 4.13745Q7.54028 3.50928 8.02466 3.02502Q8.50903 2.54089 9.13721 2.27527Q9.78809 2 10.5 2Q11.2119 2 11.863 2.27527Q12.4912 2.54089 12.9756 3.02502Q13.46 3.50928 13.7256 4.13745Q14.001 4.78821 14.001 5.5ZM19.9456 19.2732L18.0549 15.4832Q17.7717 14.9182 17.3442 14.4536Q16.9243 13.9973 16.396 13.6711Q15.8674 13.345 15.2712 13.1741Q14.6641 13 14.031 13L6.96899 13Q6.33594 13 5.72876 13.1741Q5.13257 13.345 4.604 13.6711Q4.07568 13.9973 3.65576 14.4536Q3.22827 14.9182 2.94458 15.484L1.05444 19.2732Q0.995117 19.3911 1.00049 19.5209Q1.00586 19.6508 1.07397 19.7615Q1.14185 19.8723 1.25537 19.9359Q1.36865 19.9996 1.49878 20L19.5027 20Q19.6313 19.9996 19.7446 19.9359Q19.8582 19.8723 19.926 19.7615Q19.9941 19.6508 19.9995 19.5209Q20.0049 19.3911 19.9465 19.275L19.9456 19.2732ZM20.8394 18.825Q21.0149 19.1732 20.9988 19.5627Q20.9824 19.9524 20.7783 20.2847Q20.5742 20.6171 20.2341 20.8079Q19.8943 20.9988 19.5027 21L1.49585 21Q1.10571 20.9988 0.765869 20.808Q0.425781 20.6171 0.22168 20.2847Q0.0175781 19.9524 0.0012207 19.5627Q-0.0148926 19.1732 0.159668 18.8268L2.05054 15.0359Q2.39722 14.3445 2.91992 13.7765Q3.43311 13.2188 4.07886 12.8202Q4.72461 12.4216 5.45312 12.2128Q6.19531 12 6.96899 12L14.031 12Q14.8047 12 15.5466 12.2128Q16.2754 12.4216 16.9211 12.8202Q17.5669 13.2188 18.0801 13.7765Q18.6028 14.3445 18.95 15.0367L20.8403 18.8268L20.8394 18.825ZM4.73535 16.3837L3.56494 18.7236L3.11792 18.5L3.11792 18L17.8823 18L17.8823 18.5L17.4351 18.7236L16.2646 16.3837Q15.9475 15.7484 15.344 15.3746Q14.7405 15.001 14.0305 15L6.96899 15Q6.25977 15.001 5.65601 15.3746Q5.05249 15.7484 4.7356 16.3834L4.73535 16.3837ZM3.84082 15.9366Q4.06079 15.4962 4.39282 15.1342Q4.71899 14.7787 5.12964 14.5245Q5.54028 14.2703 6.00391 14.1367Q6.47607 14.0006 6.96899 14L14.0317 14Q14.5242 14.0006 14.9963 14.1367Q15.46 14.2703 15.8704 14.5245Q16.281 14.7787 16.6072 15.1342Q16.9395 15.4962 17.1592 15.9363L18.6914 19L2.30859 19L3.84106 15.9363L3.84082 15.9366Z"
          fill="#FFFFFF" fill-opacity="1.000000" fill-rule="nonzero"/>
</svg>
