<svg width="127.968750" height="25.771484" viewBox="0 0 127.969 25.7715" fill="none" xmlns="http://www.w3.org/2000/svg">
    <defs/>
    <path id="SHOPPE"
          d="M44.72 7.5Q43.98 9.84 43.98 12.88Q43.98 15.92 44.72 18.28Q45.45 20.64 46.77 22.26Q47.69 23.4 48.86 24.17Q49.36 24.5 49.9 24.76Q50.33 24.96 50.77 25.13Q52.2 25.66 53.79 25.77L53.79 22.38Q53.51 22.36 53.23 22.3Q52.41 22.13 51.64 21.68Q50.62 21.08 49.85 19.92Q49.08 18.76 48.63 17.03Q48.19 15.31 48.15 12.88Q48.19 10.49 48.63 8.75Q49.08 7 49.83 5.87Q50.58 4.75 51.61 4.16Q52.17 3.85 52.77 3.66Q53.27 3.51 53.79 3.45L53.79 0.03Q51.86 0.15 50.2 0.89Q50.04 0.96 49.88 1.04Q49.42 1.26 48.99 1.53Q47.75 2.32 46.77 3.53Q45.45 5.16 44.72 7.5ZM58.12 0.62Q56.72 0.11 55.16 0.03L55.16 3.41Q55.45 3.44 55.73 3.5Q56.55 3.67 57.31 4.11Q58.34 4.71 59.11 5.86Q59.88 7 60.32 8.73Q60.77 10.45 60.8 12.88Q60.77 15.31 60.32 17.03Q59.88 18.76 59.13 19.9Q58.37 21.05 57.35 21.65Q56.75 22 56.1 22.19Q55.64 22.33 55.16 22.38L55.16 25.77Q57.17 25.64 58.88 24.84Q58.97 24.8 59.06 24.76Q59.43 24.57 59.79 24.36Q61.11 23.54 62.15 22.26Q63.47 20.64 64.22 18.28Q64.97 15.92 64.97 12.88Q64.97 9.84 64.22 7.5Q63.47 5.16 62.15 3.53Q61.19 2.34 59.97 1.55Q59.52 1.26 59.04 1.02Q58.59 0.8 58.12 0.62ZM23.13 0.41L18.96 0.41L18.96 25.6L23.13 25.6L23.13 0.41ZM38.14 25.6L38.14 0.41L34.04 0.41L34.04 11.45L24.54 11.45L24.54 14.25L34.04 14.25L34.04 25.6L38.14 25.6ZM74.81 0.41L70.71 0.41L70.71 25.6L74.81 25.6L74.81 0.41ZM78.63 0.43Q78.29 0.41 77.96 0.41L76.22 0.41L76.22 3.52L77.89 3.52Q79.46 3.52 80.42 4.01Q81.38 4.51 81.91 5.24Q82.44 5.98 82.61 6.78Q82.78 7.58 82.78 8.2Q82.78 9.74 82.4 10.78Q82.03 11.82 81.41 12.4Q80.82 12.96 80.12 13.22Q80.09 13.23 80.06 13.24Q79.47 13.45 78.87 13.49Q78.72 13.5 78.57 13.5L76.22 13.5L76.22 16.5L77.86 16.5Q79.84 16.5 81.48 15.92Q83.12 15.34 84.28 14.28Q84.44 14.13 84.6 13.98Q85.53 13.01 86.09 11.67Q86.74 10.11 86.74 8.2Q86.74 6.56 86.12 5.22Q86.05 5.08 85.97 4.93Q85.5 4.04 84.85 3.31Q84.44 2.85 83.96 2.46Q83.55 2.12 83.11 1.84Q82.19 1.26 81.14 0.92Q79.89 0.51 78.63 0.43ZM95.49 0.41L91.39 0.41L91.39 25.6L95.49 25.6L95.49 0.41ZM99.3 0.43Q98.97 0.41 98.64 0.41L96.89 0.41L96.89 3.52L98.57 3.52Q100.14 3.52 101.1 4.01Q102.06 4.51 102.59 5.24Q103.12 5.98 103.29 6.78Q103.46 7.58 103.46 8.2Q103.46 9.74 103.08 10.78Q102.71 11.82 102.09 12.4Q101.5 12.96 100.8 13.22Q100.77 13.23 100.74 13.24Q100.15 13.45 99.55 13.49Q99.4 13.5 99.25 13.5L96.89 13.5L96.89 16.5L98.54 16.5Q100.52 16.5 102.16 15.92Q103.8 15.34 104.96 14.28Q105.12 14.13 105.27 13.98Q106.21 13.01 106.77 11.67Q107.42 10.11 107.42 8.2Q107.42 6.56 106.8 5.22Q106.73 5.08 106.65 4.93Q106.18 4.04 105.53 3.31Q105.12 2.85 104.64 2.46Q104.23 2.12 103.78 1.84Q102.87 1.26 101.82 0.92Q100.57 0.51 99.3 0.43ZM116.38 0.41L112.21 0.41L112.21 25.6L116.38 25.6L116.38 0.41ZM127.96 3.52L127.96 0.41L117.78 0.41L117.78 3.52L127.96 3.52ZM117.78 14.25L126.9 14.25L126.9 11.45L117.78 11.45L117.78 14.25ZM127.96 22.49L117.78 22.49L117.78 25.6L127.96 25.6L127.96 22.49Z"
          fill="#000000" fill-opacity="1.000000" fill-rule="evenodd"/>
    <path id="SHOPPE"
          d="M11.55 4.06Q11.79 4.23 11.96 4.3Q11.99 4.27 12.16 3.96Q12.33 3.65 12.57 3.19Q12.81 2.73 13.09 2.2Q13.36 1.67 13.56 1.23Q12.61 0.61 11.05 0.32Q9.5 0.03 7.99 0L7.99 3.45Q9.05 3.38 9.74 3.48Q10.42 3.58 10.86 3.74Q11.31 3.89 11.55 4.06ZM0.68 4.34Q0.17 5.53 0.17 7.04Q0.17 8.61 0.76 9.74Q1.14 10.45 1.65 11.06Q1.95 11.41 2.29 11.72Q2.29 11.72 2.3 11.73Q3.22 12.58 4.34 13.21Q5.46 13.84 6.59 14.38L6.59 10.49Q5.5 9.87 4.78 9.05Q4.69 8.95 4.62 8.85Q4.06 8.07 4.06 6.9Q4.06 6.87 4.06 6.84Q4.09 5.91 4.78 5Q5.19 4.47 5.71 4.12Q6.12 3.85 6.59 3.69L6.59 0.1Q5.74 0.21 4.94 0.48Q4.52 0.62 4.11 0.8Q3.3 1.17 2.63 1.71Q2.33 1.96 2.06 2.23Q1.86 2.44 1.68 2.67Q1.07 3.42 0.68 4.34ZM10.3 12.27Q9.12 11.68 7.99 11.17L7.99 15.17Q9.22 15.85 10.01 16.64Q10.31 16.94 10.49 17.29Q10.8 17.88 10.8 18.62Q10.8 20.25 9.99 21.2Q9.3 22.03 7.99 22.35L7.99 25.63Q9.57 25.42 10.8 24.78Q12.03 24.13 12.86 23.19Q13.33 22.66 13.68 22.07Q13.96 21.6 14.16 21.08Q14.45 20.37 14.55 19.63Q14.62 19.17 14.62 18.69Q14.62 16.91 14.01 15.72Q13.46 14.65 12.64 13.87Q12.54 13.77 12.44 13.68Q12.42 13.67 12.4 13.65Q11.46 12.84 10.3 12.27ZM1.93 21.51Q1.19 21.25 0.71 20.98L0 23.92Q0.58 24.43 1.38 24.79Q2.18 25.15 3.07 25.36Q3.96 25.56 4.83 25.65Q5.7 25.73 6.52 25.73L6.59 25.73L6.59 22.49L6.49 22.49Q5.81 22.49 5.02 22.35Q4.23 22.21 3.45 21.99Q2.66 21.77 1.93 21.51Z"
          fill="#A18A68" fill-opacity="1.000000" fill-rule="evenodd"/>
</svg>
