<svg width="20.000000" height="20.000000" viewBox="0 0 20 20" fill="none" xmlns="http://www.w3.org/2000/svg">
    <defs/>
    <mask id="mask_2_1072" fill="white">
        <path id="Icon color"
              d="M10 0C4.47705 0 0 4.47717 0 10C0 15.5228 4.47705 20 10 20C15.5229 20 20 15.5228 20 10C20 7.34784 18.9463 4.80432 17.0713 2.92896C15.1958 1.05359 12.6523 0 10 0ZM8.72998 13.35L14.3501 7.73004C14.5342 7.53687 14.5342 7.23322 14.3501 7.04004L13.8203 6.51001C13.6255 6.31946 13.3145 6.31946 13.1201 6.51001L8.37988 11.2501L6.87988 9.76001C6.78955 9.66339 6.6626 9.60852 6.53027 9.60852C6.39746 9.60852 6.271 9.66339 6.18018 9.76001L5.6499 10.29C5.55566 10.3839 5.50195 10.5117 5.50195 10.645C5.50195 10.7784 5.55566 10.9061 5.6499 11.0001L8.03027 13.35C8.12061 13.4467 8.24756 13.5016 8.37988 13.5016C8.5127 13.5016 8.63916 13.4467 8.72998 13.35Z"
              clip-rule="evenodd" fill="" fill-opacity="1.000000" fill-rule="evenodd"/>
    </mask>
    <path id="Icon color"
          d="M10 0C4.47705 0 0 4.47717 0 10C0 15.5228 4.47705 20 10 20C15.5229 20 20 15.5228 20 10C20 7.34784 18.9463 4.80432 17.0713 2.92896C15.1958 1.05359 12.6523 0 10 0ZM8.72998 13.35L14.3501 7.73004C14.5342 7.53687 14.5342 7.23322 14.3501 7.04004L13.8203 6.51001C13.6255 6.31946 13.3145 6.31946 13.1201 6.51001L8.37988 11.2501L6.87988 9.76001C6.78955 9.66339 6.6626 9.60852 6.53027 9.60852C6.39746 9.60852 6.271 9.66339 6.18018 9.76001L5.6499 10.29C5.55566 10.3839 5.50195 10.5117 5.50195 10.645C5.50195 10.7784 5.55566 10.9061 5.6499 11.0001L8.03027 13.35C8.12061 13.4467 8.24756 13.5016 8.37988 13.5016C8.5127 13.5016 8.63916 13.4467 8.72998 13.35Z"
          clip-rule="evenodd" fill="#A18A68" fill-opacity="1.000000" fill-rule="evenodd" mask="url(#mask_2_1072)"/>
    <path id="Icon color" d="" fill="#979797" fill-opacity="0.000000" fill-rule="nonzero"/>
</svg>
