<svg width="18.000000" height="18.000000" viewBox="0 0 18 18" fill="none" xmlns="http://www.w3.org/2000/svg">
    <mask id="mask_5_13" fill="white">
        <path id="Icon color"
              d="M13 0L5 0C2.23853 0 0 2.23859 0 5L0 13C0 15.7614 2.23853 18 5 18L13 18C15.7615 18 18 15.7614 18 13L18 5C18 2.23859 15.7615 0 13 0ZM16.25 13C16.2446 14.7926 14.7927 16.2445 13 16.25L5 16.25C3.20728 16.2445 1.75537 14.7926 1.75 13L1.75 5C1.75537 3.20737 3.20728 1.75549 5 1.75L13 1.75C14.7927 1.75549 16.2446 3.20737 16.25 5L16.25 13ZM13.75 5.25C14.3022 5.25 14.75 4.80228 14.75 4.25C14.75 3.69772 14.3022 3.25 13.75 3.25C13.1978 3.25 12.75 3.69772 12.75 4.25C12.75 4.80228 13.1978 5.25 13.75 5.25ZM9 4.5C6.51465 4.5 4.5 6.51474 4.5 9C4.5 11.4853 6.51465 13.5 9 13.5C11.4854 13.5 13.5 11.4853 13.5 9C13.5027 7.80573 13.0293 6.65958 12.1848 5.81509C11.3403 4.97061 10.1943 4.49734 9 4.5ZM6.25 9C6.25 10.5188 7.4812 11.75 9 11.75C10.5188 11.75 11.75 10.5188 11.75 9C11.75 7.48123 10.5188 6.25 9 6.25C7.4812 6.25 6.25 7.48123 6.25 9Z"
              clip-rule="evenodd" fill="" fill-opacity="1.000000" fill-rule="evenodd"/>
    </mask>
    <path id="Icon color"
          d="M13 0L5 0C2.23853 0 0 2.23859 0 5L0 13C0 15.7614 2.23853 18 5 18L13 18C15.7615 18 18 15.7614 18 13L18 5C18 2.23859 15.7615 0 13 0ZM16.25 13C16.2446 14.7926 14.7927 16.2445 13 16.25L5 16.25C3.20728 16.2445 1.75537 14.7926 1.75 13L1.75 5C1.75537 3.20737 3.20728 1.75549 5 1.75L13 1.75C14.7927 1.75549 16.2446 3.20737 16.25 5L16.25 13ZM13.75 5.25C14.3022 5.25 14.75 4.80228 14.75 4.25C14.75 3.69772 14.3022 3.25 13.75 3.25C13.1978 3.25 12.75 3.69772 12.75 4.25C12.75 4.80228 13.1978 5.25 13.75 5.25ZM9 4.5C6.51465 4.5 4.5 6.51474 4.5 9C4.5 11.4853 6.51465 13.5 9 13.5C11.4854 13.5 13.5 11.4853 13.5 9C13.5027 7.80573 13.0293 6.65958 12.1848 5.81509C11.3403 4.97061 10.1943 4.49734 9 4.5ZM6.25 9C6.25 10.5188 7.4812 11.75 9 11.75C10.5188 11.75 11.75 10.5188 11.75 9C11.75 7.48123 10.5188 6.25 9 6.25C7.4812 6.25 6.25 7.48123 6.25 9Z"
          clip-rule="evenodd" fill="#707070" fill-opacity="1.000000" fill-rule="evenodd" mask="url(#mask_5_13)"/>
    <path id="Icon color" d="" fill="#979797" fill-opacity="0.000000" fill-rule="nonzero"/>
</svg>
