<svg width="18.530273" height="17.999939" viewBox="0 0 18.5303 17.9999" fill="none" xmlns="http://www.w3.org/2000/svg">
    <mask id="mask_5_18" fill="white">
        <path id="Icon color"
              d="M0 2.11765C0 0.94809 0.947998 0 2.11768 0C2.6792 0 3.21802 0.223114 3.61499 0.620239C4.01221 1.0174 4.23535 1.556 4.23535 2.11765C4.23535 3.2872 3.28711 4.23529 2.11768 4.23529C0.947998 4.23529 0 3.2872 0 2.11765ZM18.5295 11.0223C18.5659 8.72983 17.002 6.72095 14.7708 6.19406C13.2754 5.87207 11.7166 6.29428 10.5884 7.327L10.5884 6.88229C10.5884 6.5899 10.3513 6.35287 10.0588 6.35287L7.41187 6.35287C7.11938 6.35287 6.88232 6.5899 6.88232 6.88229L6.88232 17.4705C6.88232 17.7629 7.11938 17.9999 7.41187 17.9999L10.0588 17.9999C10.3513 17.9999 10.5884 17.7629 10.5884 17.4705L10.5884 11.4988C10.5623 10.4354 11.3032 9.50677 12.3459 9.29642C12.9668 9.18924 13.603 9.36407 14.082 9.77341C14.561 10.1828 14.8328 10.7841 14.8235 11.4141L14.8235 17.4705C14.8235 17.7629 15.0605 17.9999 15.353 17.9999L18 17.9999C18.2925 17.9999 18.5295 17.7629 18.5295 17.4705L18.5295 11.0223ZM4.23535 6.88229L4.23535 17.4705C4.23535 17.7629 3.99829 17.9999 3.70581 17.9999L1.05884 17.9999C0.766357 17.9999 0.529297 17.7629 0.529297 17.4705L0.529297 6.88229C0.529297 6.5899 0.766357 6.35287 1.05884 6.35287L3.70581 6.35287C3.99829 6.35287 4.23535 6.5899 4.23535 6.88229Z"
              clip-rule="evenodd" fill="" fill-opacity="1.000000" fill-rule="evenodd"/>
    </mask>
    <path id="Icon color"
          d="M0 2.11765C0 0.94809 0.947998 0 2.11768 0C2.6792 0 3.21802 0.223114 3.61499 0.620239C4.01221 1.0174 4.23535 1.556 4.23535 2.11765C4.23535 3.2872 3.28711 4.23529 2.11768 4.23529C0.947998 4.23529 0 3.2872 0 2.11765ZM18.5295 11.0223C18.5659 8.72983 17.002 6.72095 14.7708 6.19406C13.2754 5.87207 11.7166 6.29428 10.5884 7.327L10.5884 6.88229C10.5884 6.5899 10.3513 6.35287 10.0588 6.35287L7.41187 6.35287C7.11938 6.35287 6.88232 6.5899 6.88232 6.88229L6.88232 17.4705C6.88232 17.7629 7.11938 17.9999 7.41187 17.9999L10.0588 17.9999C10.3513 17.9999 10.5884 17.7629 10.5884 17.4705L10.5884 11.4988C10.5623 10.4354 11.3032 9.50677 12.3459 9.29642C12.9668 9.18924 13.603 9.36407 14.082 9.77341C14.561 10.1828 14.8328 10.7841 14.8235 11.4141L14.8235 17.4705C14.8235 17.7629 15.0605 17.9999 15.353 17.9999L18 17.9999C18.2925 17.9999 18.5295 17.7629 18.5295 17.4705L18.5295 11.0223ZM4.23535 6.88229L4.23535 17.4705C4.23535 17.7629 3.99829 17.9999 3.70581 17.9999L1.05884 17.9999C0.766357 17.9999 0.529297 17.7629 0.529297 17.4705L0.529297 6.88229C0.529297 6.5899 0.766357 6.35287 1.05884 6.35287L3.70581 6.35287C3.99829 6.35287 4.23535 6.5899 4.23535 6.88229Z"
          clip-rule="evenodd" fill="#707070" fill-opacity="1.000000" fill-rule="evenodd" mask="url(#mask_5_18)"/>
    <path id="Icon color" d="" fill="#979797" fill-opacity="0.000000" fill-rule="nonzero"/>
</svg>
