<svg width="18.000000" height="18.000000" viewBox="0 0 18 17.2495" fill="black" xmlns="http://www.w3.org/2000/svg">
    <path id="Vector"
          d="M13.74 10.97L17.67 7.53C17.96 7.28 18.07 6.88 17.95 6.51C17.83 6.15 17.51 5.89 17.13 5.86L11.93 5.38L9.88 0.58C9.72 0.22 9.38 0 9 0C8.61 0 8.27 0.22 8.12 0.58L6.06 5.38L0.86 5.86C0.48 5.89 0.16 6.15 0.04 6.51C-0.08 6.88 0.03 7.28 0.32 7.53L4.25 10.97L3.09 16.07C3.01 16.45 3.15 16.84 3.46 17.06C3.63 17.18 3.83 17.24 4.02 17.24C4.19 17.24 4.36 17.2 4.51 17.11L9 14.43L13.47 17.11C13.8 17.31 14.22 17.29 14.53 17.06C14.84 16.84 14.98 16.45 14.9 16.07L13.74 10.97ZM16.94 6.84L11.24 6.33L9 1.06L6.75 6.33L1.05 6.84L5.36 10.61L4.09 16.2L9 13.26L13.9 16.2L12.63 10.61L16.94 6.84Z"
          fill-opacity="1.000000"/>
</svg>