<svg width="20.000000" height="20.000000" viewBox="0 0 20 20" fill="none" xmlns="http://www.w3.org/2000/svg">
    <mask id="mask_88_362" fill="white">
        <path id="Icon color"
              d="M10 0C4.47716 0 0 4.47717 0 10C0 15.5228 4.47716 20 10 20C15.5228 20 20 15.5228 20 10C20 7.34778 18.9464 4.80432 17.0711 2.92896C15.1957 1.05359 12.6522 0 10 0ZM8.7301 13.3501L14.3501 7.72998C14.5342 7.53687 14.5342 7.23315 14.3501 7.04004L13.8201 6.51001C13.6257 6.31946 13.3145 6.31946 13.1201 6.51001L8.3801 11.25L6.8801 9.76001C6.78937 9.66333 6.66269 9.60852 6.53009 9.60852C6.39751 9.60852 6.27083 9.66333 6.1801 9.76001L5.6501 10.29C5.55544 10.3839 5.5022 10.5117 5.5022 10.645C5.5022 10.7783 5.55544 10.9061 5.6501 11L8.03009 13.3501C8.12083 13.4468 8.24751 13.5016 8.3801 13.5016C8.51268 13.5016 8.63936 13.4468 8.7301 13.3501Z"
              clip-rule="evenodd" fill="" fill-opacity="1.000000" fill-rule="evenodd"/>
    </mask>
    <path id="Icon color"
          d="M10 0C4.47716 0 0 4.47717 0 10C0 15.5228 4.47716 20 10 20C15.5228 20 20 15.5228 20 10C20 7.34778 18.9464 4.80432 17.0711 2.92896C15.1957 1.05359 12.6522 0 10 0ZM8.7301 13.3501L14.3501 7.72998C14.5342 7.53687 14.5342 7.23315 14.3501 7.04004L13.8201 6.51001C13.6257 6.31946 13.3145 6.31946 13.1201 6.51001L8.3801 11.25L6.8801 9.76001C6.78937 9.66333 6.66269 9.60852 6.53009 9.60852C6.39751 9.60852 6.27083 9.66333 6.1801 9.76001L5.6501 10.29C5.55544 10.3839 5.5022 10.5117 5.5022 10.645C5.5022 10.7783 5.55544 10.9061 5.6501 11L8.03009 13.3501C8.12083 13.4468 8.24751 13.5016 8.3801 13.5016C8.51268 13.5016 8.63936 13.4468 8.7301 13.3501Z"
          clip-rule="evenodd" fill="#A18A68" fill-opacity="1.000000" fill-rule="evenodd" mask="url(#mask_88_362)"/>
    <path id="Icon color" d="" fill="#979797" fill-opacity="0.000000" fill-rule="nonzero"/>
</svg>
