<svg width="27.000000" height="15.000000" viewBox="0 0 27.2998 14.9424" fill="none" xmlns="http://www.w3.org/2000/svg">
    <defs/>
    <path id="Vector"
          d="M1.41 7.83L2.85 9.28C8.81 15.23 18.49 15.23 24.44 9.28L25.88 7.83L24.43 6.39C18.48 0.44 8.8 0.44 2.85 6.39L1.41 7.83ZM13.64 14.79C9.47 14.79 5.29 13.19 2.11 10.02L0.3 8.2C0.09 8 0.09 7.67 0.3 7.46L2.11 5.64C8.47 -0.71 18.82 -0.71 25.18 5.64L26.99 7.46C27.2 7.66 27.2 7.99 26.99 8.2L25.18 10.02C22 13.19 17.82 14.79 13.64 14.79Z"
          fill="#707070" fill-opacity="1.000000" fill-rule="nonzero"/>
    <path id="Vector"
          d="M2.85 9.28C8.81 15.23 18.49 15.23 24.44 9.28L25.88 7.83L24.43 6.39C18.48 0.44 8.8 0.44 2.85 6.39L1.41 7.83L2.85 9.28ZM2.11 10.02L0.3 8.2C0.09 8 0.09 7.67 0.3 7.46L2.11 5.64C8.47 -0.71 18.82 -0.71 25.18 5.64L26.99 7.46C27.2 7.66 27.2 7.99 26.99 8.2L25.18 10.02C22 13.19 17.82 14.79 13.64 14.79C9.47 14.79 5.29 13.19 2.11 10.02Z"
          stroke="#707070" stroke-opacity="1.000000" stroke-width="0.300000"/>
    <path id="Vector"
          d="M13.65 3.84C11.44 3.84 9.65 5.63 9.65 7.83C9.65 10.04 11.44 11.83 13.65 11.83C15.85 11.83 17.64 10.04 17.64 7.83C17.64 5.63 15.85 3.84 13.65 3.84ZM13.65 12.88C10.86 12.88 8.6 10.61 8.6 7.83C8.6 5.05 10.87 2.79 13.65 2.79C16.42 2.79 18.69 5.06 18.69 7.83C18.69 10.62 16.43 12.88 13.65 12.88Z"
          fill="#707070" fill-opacity="1.000000" fill-rule="nonzero"/>
    <path id="Vector"
          d="M9.65 7.83C9.65 10.04 11.44 11.83 13.65 11.83C15.85 11.83 17.64 10.04 17.64 7.83C17.64 5.63 15.85 3.84 13.65 3.84C11.44 3.84 9.65 5.63 9.65 7.83ZM8.6 7.83C8.6 5.05 10.87 2.79 13.65 2.79C16.42 2.79 18.69 5.06 18.69 7.83C18.69 10.62 16.43 12.88 13.65 12.88C10.86 12.88 8.6 10.61 8.6 7.83Z"
          stroke="#707070" stroke-opacity="1.000000" stroke-width="0.300000"/>
    <line id="Line 43" x1="0.912842" y1="14.440186" x2="26.912842" y2="0.440186" stroke="#707070"
          stroke-opacity="1.000000" stroke-width="1.000000"/>
</svg>
