<svg width="27.000000" height="14.000000" viewBox="0 0 27.2998 14.2119" fill="none" xmlns="http://www.w3.org/2000/svg">
    <defs/>
    <path id="Vector"
          d="M1.41 7.1L2.85 8.55C8.81 14.5 18.49 14.5 24.44 8.55L25.88 7.1L24.43 5.66C18.48 -0.29 8.8 -0.29 2.85 5.66L1.41 7.1ZM13.64 14.06C9.47 14.06 5.29 12.46 2.11 9.28L0.3 7.47C0.09 7.27 0.09 6.94 0.3 6.73L2.11 4.91C8.47 -1.44 18.82 -1.44 25.18 4.91L26.99 6.73C27.2 6.93 27.2 7.26 26.99 7.47L25.18 9.28C22 12.46 17.82 14.06 13.64 14.06Z"
          fill="#707070" fill-opacity="1.000000" fill-rule="nonzero"/>
    <path id="Vector"
          d="M2.85 8.55C8.81 14.5 18.49 14.5 24.44 8.55L25.88 7.1L24.43 5.66C18.48 -0.29 8.8 -0.29 2.85 5.66L1.41 7.1L2.85 8.55ZM2.11 9.28L0.3 7.47C0.09 7.27 0.09 6.94 0.3 6.73L2.11 4.91C8.47 -1.44 18.82 -1.44 25.18 4.91L26.99 6.73C27.2 6.93 27.2 7.26 26.99 7.47L25.18 9.28C22 12.46 17.82 14.06 13.64 14.06C9.47 14.06 5.29 12.46 2.11 9.28Z"
          stroke="#707070" stroke-opacity="1.000000" stroke-width="0.300000"/>
    <path id="Vector"
          d="M13.65 3.11C11.44 3.11 9.65 4.9 9.65 7.1C9.65 9.31 11.44 11.1 13.65 11.1C15.85 11.1 17.64 9.31 17.64 7.1C17.64 4.9 15.85 3.11 13.65 3.11ZM13.65 12.14C10.86 12.14 8.6 9.88 8.6 7.1C8.6 4.32 10.87 2.06 13.65 2.06C16.42 2.06 18.69 4.32 18.69 7.1C18.69 9.89 16.43 12.14 13.65 12.14Z"
          fill="#707070" fill-opacity="1.000000" fill-rule="nonzero"/>
    <path id="Vector"
          d="M9.65 7.1C9.65 9.31 11.44 11.1 13.65 11.1C15.85 11.1 17.64 9.31 17.64 7.1C17.64 4.9 15.85 3.11 13.65 3.11C11.44 3.11 9.65 4.9 9.65 7.1ZM8.6 7.1C8.6 4.32 10.87 2.06 13.65 2.06C16.42 2.06 18.69 4.32 18.69 7.1C18.69 9.89 16.43 12.14 13.65 12.14C10.86 12.14 8.6 9.88 8.6 7.1Z"
          stroke="#707070" stroke-opacity="1.000000" stroke-width="0.300000"/>
</svg>
