<svg width="19.000000" height="18.000000" viewBox="0 0 19.1382 18" fill="none" xmlns="http://www.w3.org/2000/svg">
    <mask id="mask_1_894" fill="white">
        <path id="Icon color"
              d="M13.875 0C12.231 0.0520935 10.6777 0.778625 9.56885 2.01407C8.46045 0.778625 6.90723 0.0520935 5.26318 0C2.35645 0 0 2.39587 0 5.35135C0 9.16541 4.54541 13.3784 6.69824 15.5676L8.87988 17.7859C9.01465 17.9229 9.19678 17.9998 9.38721 18L9.75098 18C9.94092 17.9998 10.1235 17.9229 10.2578 17.7859L12.4395 15.5676C14.5928 13.3784 19.1382 9.16541 19.1382 5.35135C19.1382 2.39587 16.7817 0 13.875 0ZM9.56934 15.7329L11.6743 13.6215C13.6167 11.6756 17.2241 8.03665 17.2241 5.35123C17.2246 4.44296 16.8677 3.57233 16.2334 2.93286C15.5991 2.29337 14.7397 1.93802 13.8467 1.9458C12.3589 2.08624 11.0161 2.91052 10.2007 4.18365C10.1094 4.30496 9.96826 4.37674 9.81787 4.37823L9.38721 4.37823C9.16357 4.37762 8.95264 4.27383 8.81299 4.09607C8.01074 2.86987 6.70557 2.07922 5.26318 1.9458C3.41357 1.9458 1.91406 3.47046 1.91406 5.35123C1.91406 8.03665 5.52148 11.6756 7.46387 13.6215L9.56934 15.7329Z"
              clip-rule="evenodd" fill="" fill-opacity="1.000000" fill-rule="evenodd"/>
    </mask>
    <path id="Icon color"
          d="M13.875 0C12.231 0.0520935 10.6777 0.778625 9.56885 2.01407C8.46045 0.778625 6.90723 0.0520935 5.26318 0C2.35645 0 0 2.39587 0 5.35135C0 9.16541 4.54541 13.3784 6.69824 15.5676L8.87988 17.7859C9.01465 17.9229 9.19678 17.9998 9.38721 18L9.75098 18C9.94092 17.9998 10.1235 17.9229 10.2578 17.7859L12.4395 15.5676C14.5928 13.3784 19.1382 9.16541 19.1382 5.35135C19.1382 2.39587 16.7817 0 13.875 0ZM9.56934 15.7329L11.6743 13.6215C13.6167 11.6756 17.2241 8.03665 17.2241 5.35123C17.2246 4.44296 16.8677 3.57233 16.2334 2.93286C15.5991 2.29337 14.7397 1.93802 13.8467 1.9458C12.3589 2.08624 11.0161 2.91052 10.2007 4.18365C10.1094 4.30496 9.96826 4.37674 9.81787 4.37823L9.38721 4.37823C9.16357 4.37762 8.95264 4.27383 8.81299 4.09607C8.01074 2.86987 6.70557 2.07922 5.26318 1.9458C3.41357 1.9458 1.91406 3.47046 1.91406 5.35123C1.91406 8.03665 5.52148 11.6756 7.46387 13.6215L9.56934 15.7329Z"
          clip-rule="evenodd" fill="#707070" fill-opacity="1.000000" fill-rule="evenodd" mask="url(#mask_1_894)"/>
    <path id="Icon color" d="" fill="#979797" fill-opacity="0.000000" fill-rule="nonzero"/>
</svg>