<svg width="4.526367" height="8.000000" viewBox="0 0 4.52637 8" fill="none" xmlns="http://www.w3.org/2000/svg">
    <path id="Icon color"
          d="M0.05 0.76C0.02 0.73 0 0.67 0 0.62C0 0.57 0.02 0.52 0.05 0.48L0.48 0.06C0.51 0.02 0.56 0 0.62 0C0.67 0 0.72 0.02 0.76 0.06L4.43 3.73C4.49 3.79 4.52 3.86 4.52 3.94L4.52 4.05C4.52 4.13 4.49 4.2 4.43 4.26L0.76 7.93C0.72 7.97 0.67 8 0.62 8C0.56 8 0.51 7.97 0.48 7.93L0.05 7.51C0.02 7.47 0 7.42 0 7.37C0 7.32 0.02 7.26 0.05 7.23L3.29 4L0.05 0.76Z"
          fill="#000000" fill-opacity="1.000000" fill-rule="nonzero"/>
    <path id="Icon color"
          d="M0 0.62C0 0.57 0.02 0.52 0.05 0.48L0.48 0.06C0.51 0.02 0.56 0 0.62 0C0.67 0 0.72 0.02 0.76 0.06L4.43 3.73C4.49 3.79 4.52 3.86 4.52 3.94L4.52 4.05C4.52 4.13 4.49 4.2 4.43 4.26L0.76 7.93C0.72 7.97 0.67 8 0.62 8C0.56 8 0.51 7.97 0.48 7.93L0.05 7.51C0.02 7.47 0 7.42 0 7.37C0 7.32 0.02 7.26 0.05 7.23L3.29 4L0.05 0.76C0.02 0.73 0 0.67 0 0.62Z"
          stroke="#979797" stroke-opacity="0" stroke-width="0.000000"/>
</svg>
